<svg id="charge" xmlns="http://www.w3.org/2000/svg" viewBox="0 0 318.29 176.83">
  <title>battery</title>
  <rect id="charge-status" x="15.66" y="17.68" width="282.25" height="141.46" fill="#3cb54a"/>
  <g id="battery-path">
    <path d="M443.2,310.95a17.69,17.69,0,0,1,17.68,17.68v53a17.69,17.69,0,0,1-17.68,17.68v22.1a22.17,22.17,0,0,1-22.1,22.1H164.69a22.17,22.17,0,0,1-22.1-22.1V288.85a22.17,22.17,0,0,1,22.1-22.1h256.4a22.17,22.17,0,0,1,22.1,22.1v22.1Zm-2.7,70.73v-53h-15V288.85a4.26,4.26,0,0,0-4.42-4.42H164.69a4.26,4.26,0,0,0-4.42,4.42V421.47a4.26,4.26,0,0,0,4.42,4.42h256.4a4.26,4.26,0,0,0,4.42-4.42V381.68h15Z" transform="translate(-142.59 -266.74)" fill="#231f20"/>
  </g>
  <polygon id="charge-path" points="129.64 37.69 189.71 37.69 165.26 80.27 191.19 80.27 127.74 146.66 136.81 96.07 111.94 96.5 129.64 37.69" fill="#f4e237"/>
</svg>
